<?xml version="1.0" encoding="iso-8859-1"?>
<!-- Generator: Adobe Illustrator 19.0.0, SVG Export Plug-In . SVG Version: 6.00 Build 0)  -->
<svg version="1.1" id="Layer_1" xmlns="http://www.w3.org/2000/svg" xmlns:xlink="http://www.w3.org/1999/xlink" x="0px" y="0px"
	 viewBox="0 0 512 512" style="enable-background:new 0 0 512 512;" xml:space="preserve">
<g>
	<path style="fill:#2D527C;" d="M380.927,512H131.073c-23.011,0-41.731-18.72-41.731-41.731c0-23.011,18.722-41.732,41.731-41.732
		h24.323c6.42-27.894,31.454-48.757,61.269-48.757h78.67c7.791,0,14.109,6.317,14.109,14.109s-6.318,14.109-14.109,14.109h-78.67
		c-19.105,0-34.648,15.543-34.648,34.648c0,7.793-6.318,14.109-14.109,14.109h-36.835c-7.451,0-13.512,6.061-13.512,13.514
		c0,7.451,6.061,13.512,13.512,13.512h249.855c7.451,0,13.512-6.061,13.512-13.512c0-7.451-6.061-13.514-13.512-13.514h-36.835
		c-7.791,0-14.109-6.317-14.109-14.109s6.318-14.109,14.109-14.109h36.835c23.011,0,41.731,18.722,41.731,41.732
		C422.658,493.28,403.938,512,380.927,512z"/>
	<path style="fill:#2D527C;" d="M256,406.589c-7.791,0-14.109-6.317-14.109-14.109V47.502c0-7.793,6.318-14.109,14.109-14.109
		c7.791,0,14.109,6.317,14.109,14.109v344.978C270.109,400.272,263.793,406.589,256,406.589z"/>
	<path style="fill:#2D527C;" d="M408.612,99.706H103.388c-7.791,0-14.109-6.317-14.109-14.109s6.318-14.109,14.109-14.109h305.225
		c7.791,0,14.109,6.317,14.109,14.109S416.405,99.706,408.612,99.706z"/>
</g>
<path style="fill:#CEE8FA;" d="M39.296,285.156v2.399c0,35.397,28.695,64.091,64.091,64.091l0,0
	c35.397,0,64.091-28.695,64.091-64.091v-2.399H39.296z"/>
<g>
	<path style="fill:#2D527C;" d="M103.388,365.755c-43.121,0-78.202-35.081-78.202-78.202v-2.399c0-7.793,6.318-14.109,14.109-14.109
		H167.48c7.791,0,14.109,6.317,14.109,14.109v2.399C181.589,330.675,146.508,365.755,103.388,365.755z M54.79,299.265
		c5.285,21.929,25.071,38.271,48.598,38.271s43.313-16.343,48.598-38.271H54.79z"/>
	<path style="fill:#2D527C;" d="M42.287,247.86c-1.793,0-3.615-0.343-5.374-1.069c-7.203-2.97-10.636-11.218-7.666-18.422
		L90.344,80.217c2.178-5.282,7.33-8.731,13.044-8.731l0,0c5.716,0,10.864,3.447,13.044,8.731l61.094,148.151
		c2.97,7.204-0.461,15.452-7.666,18.422c-7.208,2.971-15.452-0.461-18.424-7.664l-48.049-116.521l-48.05,116.521
		C53.091,244.569,47.831,247.86,42.287,247.86z"/>
</g>
<path style="fill:#CEE8FA;" d="M344.521,285.156v2.399c0,35.397,28.695,64.091,64.091,64.091l0,0
	c35.397,0,64.093-28.695,64.093-64.091v-2.399H344.521z"/>
<g>
	<path style="fill:#2D527C;" d="M408.612,365.755c-43.121,0-78.202-35.081-78.202-78.202v-2.399c0-7.793,6.318-14.109,14.109-14.109
		h128.185c7.791,0,14.109,6.317,14.109,14.109v2.399C486.814,330.675,451.733,365.755,408.612,365.755z M360.015,299.265
		c5.285,21.929,25.071,38.271,48.598,38.271c23.527,0,43.313-16.343,48.598-38.271H360.015z"/>
	<path style="fill:#2D527C;" d="M469.714,247.86c-5.546,0-10.803-3.289-13.05-8.734l-48.052-116.521l-48.05,116.521
		c-2.971,7.204-11.222,10.636-18.424,7.664c-7.203-2.97-10.636-11.218-7.666-18.422l61.094-148.151
		c2.18-5.283,7.328-8.731,13.044-8.731c5.714,0,10.864,3.447,13.044,8.731l61.096,148.151c2.97,7.204-0.461,15.452-7.666,18.422
		C473.329,247.515,471.506,247.86,469.714,247.86z"/>
</g>
<circle style="fill:#CEE8FA;" cx="255.999" cy="47.502" r="33.392"/>
<path style="fill:#2D527C;" d="M256,95.002c-26.192,0-47.502-21.309-47.502-47.502S229.808,0,256,0s47.502,21.309,47.502,47.502
	S282.194,95.002,256,95.002z M256,28.218c-10.633,0-19.283,8.65-19.283,19.283s8.65,19.283,19.283,19.283s19.283-8.65,19.283-19.283
	C275.283,36.869,266.634,28.218,256,28.218z"/>
<g>
</g>
<g>
</g>
<g>
</g>
<g>
</g>
<g>
</g>
<g>
</g>
<g>
</g>
<g>
</g>
<g>
</g>
<g>
</g>
<g>
</g>
<g>
</g>
<g>
</g>
<g>
</g>
<g>
</g>
</svg>
