<?xml version="1.0" standalone="no"?>
<!DOCTYPE svg PUBLIC "-//W3C//DTD SVG 20010904//EN"
 "http://www.w3.org/TR/2001/REC-SVG-20010904/DTD/svg10.dtd">
<svg version="1.0" xmlns="http://www.w3.org/2000/svg"
 width="207.000000pt" height="241.000000pt" viewBox="0 0 207.000000 241.000000"
 preserveAspectRatio="xMidYMid meet">

<g transform="translate(0.000000,241.000000) scale(0.100000,-0.100000)"
fill="#000000" stroke="none">
<path d="M0 1205 l0 -1205 1035 0 1035 0 0 1205 0 1205 -1035 0 -1035 0 0
-1205z m1239 -187 l-30 -82 31 -24 c17 -14 36 -36 41 -49 24 -63 -51 -88 -82
-26 l-16 31 -45 -126 -46 -127 28 -14 c55 -27 112 0 156 75 7 11 13 14 17 7
11 -18 -47 -116 -83 -141 -29 -19 -45 -23 -94 -20 l-58 3 -30 -82 c-18 -51
-35 -83 -44 -83 -20 0 -18 13 17 108 l31 84 -21 21 c-52 56 -67 176 -32 252
33 72 83 106 181 118 8 1 27 35 43 80 22 58 34 77 48 77 17 0 16 -7 -12 -82z"/>
<path d="M1110 903 c-58 -22 -90 -109 -70 -193 7 -28 15 -52 20 -55 6 -4 82
189 92 234 3 16 -18 23 -42 14z"/>
</g>
</svg>
